<svg width="16" height="16" viewBox="0 0 16 16" fill="none" xmlns="http://www.w3.org/2000/svg">
<path fill-rule="evenodd" clip-rule="evenodd" d="M0.937697 0.252587C1.35048 0.218188 1.71299 0.524929 1.74739 0.937712L2.74739 12.9377C2.74912 12.9584 2.74998 12.9792 2.74998 13C2.74998 13.3315 2.88168 13.6495 3.1161 13.8839C3.35052 14.1183 3.66846 14.25 3.99998 14.25H12C12.3315 14.25 12.6494 14.1183 12.8839 13.8839C13.1183 13.6495 13.25 13.3315 13.25 13C13.25 12.9792 13.2508 12.9584 13.2526 12.9377L14.2526 0.937712C14.287 0.524929 14.6495 0.218188 15.0623 0.252587C15.475 0.286985 15.7818 0.649497 15.7474 1.06228L14.7498 13.0337C14.741 13.7508 14.4523 14.4368 13.9445 14.9445C13.4288 15.4603 12.7293 15.75 12 15.75H3.99998C3.27063 15.75 2.57116 15.4603 2.05544 14.9445C1.54765 14.4368 1.25896 13.7508 1.25019 13.0337L0.252571 1.06228C0.218173 0.649497 0.524914 0.286985 0.937697 0.252587Z" fill="#3D3D3D"/>
</svg>
